<?xml version="1.0" standalone="no"?>
<!DOCTYPE svg PUBLIC "-//W3C//DTD SVG 20010904//EN"
 "http://www.w3.org/TR/2001/REC-SVG-20010904/DTD/svg10.dtd">
<svg version="1.0" xmlns="http://www.w3.org/2000/svg"
 width="1150.000000pt" height="1150.000000pt" viewBox="0 0 1150.000000 1150.000000"
 preserveAspectRatio="xMidYMid meet">
<metadata>
Created by potrace 1.14, written by Peter Selinger 2001-2017
</metadata>
<g transform="translate(0.000000,1150.000000) scale(0.100000,-0.100000)"
fill="#000000" stroke="none">
<path d="M3965 9548 c-4 -11 -13 -3488 -9 -3488 1 0 11 42 23 93 94 406 409
802 796 999 194 98 369 148 600 169 l130 12 -3 1113 -2 1114 -765 0 c-603 0
-767 -3 -770 -12z"/>
<path d="M5803 7313 c-24 -2 -43 -8 -43 -12 0 -4 26 -14 58 -20 375 -83 734
-319 951 -626 74 -105 179 -315 214 -430 166 -533 46 -1100 -320 -1518 -211
-241 -526 -425 -842 -493 -51 -11 -78 -21 -72 -27 15 -15 341 -20 526 -9 274
18 429 56 644 158 445 212 761 622 863 1119 27 135 29 418 4 550 -126 646
-615 1151 -1235 1274 -163 33 -561 51 -748 34z"/>
<path d="M5360 7204 c-378 -46 -655 -177 -906 -428 -258 -258 -391 -543 -426
-907 -23 -254 22 -508 136 -754 128 -278 401 -551 686 -687 211 -101 397 -142
640 -142 243 0 429 41 640 142 285 136 558 409 686 687 189 410 189 850 0
1260 -128 278 -401 551 -686 687 -110 52 -265 103 -377 123 -87 15 -326 27
-393 19z"/>
<path d="M3955 5355 c3 -38 5 -823 5 -1742 l0 -1673 770 0 c726 0 770 1 771
18 0 9 2 511 2 1114 l2 1098 -55 0 c-79 0 -252 25 -348 49 -552 142 -968 549
-1123 1101 l-29 105 5 -70z"/>
</g>
</svg>
